<svg width="40" height="40" viewBox="0 0 40 40" fill="none" xmlns="http://www.w3.org/2000/svg">
<rect width="40" height="40" rx="20" fill="white"/>
<path d="M19.5995 14.7409L19.9998 15.276L20.4002 14.7409C21.1519 13.7361 22.3564 13.083 23.6998 13.083C25.9797 13.083 27.8332 14.9401 27.8332 17.2413C27.8332 18.1786 27.6837 19.0434 27.4241 19.8458L27.4231 19.849C26.8005 21.8191 25.5238 23.4097 24.1417 24.5976C22.7573 25.7873 21.2961 26.5479 20.3554 26.868L20.3554 26.868L20.3501 26.8698C20.2786 26.8951 20.1516 26.9163 19.9998 26.9163C19.8481 26.9163 19.7211 26.8951 19.6496 26.8698L19.6496 26.8698L19.6442 26.868C18.7036 26.5479 17.2423 25.7873 15.858 24.5976C14.4759 23.4097 13.1991 21.8191 12.5766 19.849L12.5766 19.849L12.5756 19.8458C12.316 19.0434 12.1665 18.1786 12.1665 17.2413C12.1665 14.9401 14.02 13.083 16.2998 13.083C17.6433 13.083 18.8477 13.7361 19.5995 14.7409Z" fill="#292D32" stroke="#111115"/>
</svg>
