<svg width="20" height="21" viewBox="0 0 20 21" fill="none" xmlns="http://www.w3.org/2000/svg">
<path d="M9.92687 12.5791L9.92706 12.5792L12.5014 14.1155C12.6944 14.2404 12.8991 14.2832 13.0833 14.2832C13.465 14.2832 13.8418 14.0914 14.054 13.7315C14.3809 13.1918 14.1993 12.5009 13.6627 12.1861L11.0812 10.6455L11.0812 10.6455L11.076 10.6424C11.0523 10.6287 10.9798 10.5634 10.9085 10.4381C10.8376 10.3133 10.8166 10.2148 10.8166 10.1832V6.7665C10.8166 6.1487 10.3094 5.6415 9.69163 5.6415C9.07382 5.6415 8.56663 6.1487 8.56663 6.7665V10.1832C8.56663 11.1004 9.13379 12.1053 9.92687 12.5791ZM2.16663 10.4998C2.16663 6.18431 5.68443 2.6665 9.99996 2.6665C14.3155 2.6665 17.8333 6.18431 17.8333 10.4998C17.8333 14.8154 14.3155 18.3332 9.99996 18.3332C5.68443 18.3332 2.16663 14.8154 2.16663 10.4998Z" fill="white" stroke="white"/>
</svg>
