<svg width="20" height="21" viewBox="0 0 20 21" fill="none" xmlns="http://www.w3.org/2000/svg">
<path d="M15.125 7.58329C15.125 10.2811 12.8484 12.5 10 12.5C7.15159 12.5 4.875 10.2811 4.875 7.58329C4.875 4.88551 7.15159 2.66663 10 2.66663C12.8484 2.66663 15.125 4.88551 15.125 7.58329Z" fill="white" stroke="white"/>
<path d="M13.1583 13.5084C13.4333 13.3667 13.75 13.575 13.75 13.8834V17.925C13.75 18.675 13.225 19.0417 12.575 18.7334L10.3417 17.675C10.15 17.5917 9.85 17.5917 9.65833 17.675L7.425 18.7334C6.775 19.0334 6.25 18.6667 6.25 17.9167L6.26667 13.8834C6.26667 13.575 6.59167 13.375 6.85833 13.5084C7.8 13.9834 8.86667 14.25 10 14.25C11.1333 14.25 12.2083 13.9834 13.1583 13.5084Z" fill="white"/>
</svg>
