<svg width="40" height="40" viewBox="0 0 40 40" fill="none" xmlns="http://www.w3.org/2000/svg">
<path d="M23.3332 20.7503V24.2503C23.3332 27.167 22.1665 28.3337 19.2498 28.3337H15.7498C12.8332 28.3337 11.6665 27.167 11.6665 24.2503V20.7503C11.6665 17.8337 12.8332 16.667 15.7498 16.667H19.2498C22.1665 16.667 23.3332 17.8337 23.3332 20.7503Z" stroke="white" stroke-width="1.5" stroke-linecap="round" stroke-linejoin="round"/>
<path d="M28.3332 15.7503V19.2503C28.3332 22.167 27.1665 23.3337 24.2498 23.3337H23.3332V20.7503C23.3332 17.8337 22.1665 16.667 19.2498 16.667H16.6665V15.7503C16.6665 12.8337 17.8332 11.667 20.7498 11.667H24.2498C27.1665 11.667 28.3332 12.8337 28.3332 15.7503Z" stroke="white" stroke-width="1.5" stroke-linecap="round" stroke-linejoin="round"/>
</svg>
