<svg width="20" height="21" viewBox="0 0 20 21" fill="none" xmlns="http://www.w3.org/2000/svg">
<path d="M1.90833 6.98335V15.0917C1.90833 16.675 3.03333 17.325 4.39999 16.5417L6.35833 15.425C6.78333 15.1834 7.49166 15.1584 7.93333 15.3834L12.3083 17.575C12.75 17.7917 13.4583 17.775 13.8833 17.5334L17.4917 15.4667C17.95 15.2 18.3333 14.55 18.3333 14.0167V5.90835C18.3333 4.32502 17.2083 3.67502 15.8417 4.45835L13.8833 5.57502C13.4583 5.81669 12.75 5.84169 12.3083 5.61669L7.93333 3.43335C7.49166 3.21669 6.78333 3.23335 6.35833 3.47502L2.74999 5.54169C2.28333 5.80835 1.90833 6.45835 1.90833 6.98335Z" stroke="#CED1DD" stroke-width="1.5" stroke-linecap="round" stroke-linejoin="round"/>
<path d="M7.13333 3.83337V14.6667" stroke="#CED1DD" stroke-width="1.5" stroke-linecap="round" stroke-linejoin="round"/>
<path d="M13.1083 6.01672V17.1667" stroke="#CED1DD" stroke-width="1.5" stroke-linecap="round" stroke-linejoin="round"/>
</svg>
