<svg width="20" height="21" viewBox="0 0 20 21" fill="none" xmlns="http://www.w3.org/2000/svg">
<path d="M6.11891 14.9861L6.11887 14.986L6.11066 14.9907L4.15233 16.1074L4.15136 16.1079C3.56214 16.4457 3.13818 16.4144 2.89273 16.2718C2.64715 16.1292 2.40833 15.7755 2.40833 15.0917V6.9834C2.40833 6.83067 2.46649 6.62317 2.58637 6.41709C2.70602 6.21139 2.8592 6.05521 2.99807 5.97585L2.9985 5.97561L6.16667 4.16104V14.949C6.16365 14.9526 6.15913 14.9574 6.15274 14.963C6.14368 14.9708 6.13227 14.9788 6.11891 14.9861Z" fill="white" stroke="white"/>
<path d="M12.2219 5.56214C12.3922 5.6465 12.5 5.82013 12.5 6.01021V16.7868C12.5 17.1553 12.115 17.3972 11.783 17.2372L8.40798 15.6112C8.23498 15.5279 8.125 15.3528 8.125 15.1608V4.33878C8.125 3.96792 8.51456 3.72613 8.8469 3.89071L12.2219 5.56214Z" fill="white"/>
<path d="M18.3333 5.90806V14.0164C18.3333 14.5414 17.9583 15.1914 17.4917 15.4581L14.707 17.054C14.3736 17.2451 13.9583 17.0044 13.9583 16.6202V5.82338C13.9583 5.64387 14.0546 5.47813 14.2105 5.38914L15.8417 4.45806C17.2083 3.67473 18.3333 4.32473 18.3333 5.90806Z" fill="white"/>
</svg>
