<svg width="40" height="40" viewBox="0 0 40 40" fill="none" xmlns="http://www.w3.org/2000/svg">
<rect x="0.5" y="0.5" width="39" height="39" rx="19.5" stroke="#31303B"/>
<path d="M28.3333 15.4166H23.3333" stroke="white" stroke-width="1.5" stroke-miterlimit="10" stroke-linecap="round" stroke-linejoin="round"/>
<path d="M15 15.4166H11.6667" stroke="white" stroke-width="1.5" stroke-miterlimit="10" stroke-linecap="round" stroke-linejoin="round"/>
<path d="M18.3334 18.3333C19.9442 18.3333 21.25 17.0275 21.25 15.4167C21.25 13.8058 19.9442 12.5 18.3334 12.5C16.7225 12.5 15.4167 13.8058 15.4167 15.4167C15.4167 17.0275 16.7225 18.3333 18.3334 18.3333Z" stroke="white" stroke-width="1.5" stroke-miterlimit="10" stroke-linecap="round" stroke-linejoin="round"/>
<path d="M28.3333 24.5834H25" stroke="white" stroke-width="1.5" stroke-miterlimit="10" stroke-linecap="round" stroke-linejoin="round"/>
<path d="M16.6667 24.5834H11.6667" stroke="white" stroke-width="1.5" stroke-miterlimit="10" stroke-linecap="round" stroke-linejoin="round"/>
<path d="M21.6667 27.5C23.2775 27.5 24.5833 26.1941 24.5833 24.5833C24.5833 22.9725 23.2775 21.6666 21.6667 21.6666C20.0558 21.6666 18.75 22.9725 18.75 24.5833C18.75 26.1941 20.0558 27.5 21.6667 27.5Z" stroke="white" stroke-width="1.5" stroke-miterlimit="10" stroke-linecap="round" stroke-linejoin="round"/>
</svg>
