<svg width="24" height="24" viewBox="0 0 24 24" fill="none" xmlns="http://www.w3.org/2000/svg">
<path d="M19.4317 6.20716C19.088 6.17581 18.7839 6.42909 18.7526 6.77284L18.6698 7.68125C17.2648 5.47481 14.8259 4 12 4C8.95995 4 6.28085 5.73506 4.95091 8.33919C4.79391 8.64659 4.91584 9.02306 5.22325 9.18006C5.53072 9.33706 5.90713 9.21516 6.06413 8.90772C7.18967 6.70384 9.44989 5.25 12 5.25C14.3243 5.25 16.4219 6.46034 17.6236 8.3565L16.7324 7.72003C16.4515 7.51944 16.0611 7.5845 15.8605 7.86538C15.6599 8.14628 15.725 8.53659 16.0059 8.73722L18.7082 10.6673C19.1043 10.9496 19.6506 10.6911 19.6939 10.2154L19.9974 6.88634C20.0287 6.54256 19.7755 6.2385 19.4317 6.20716ZM18.7767 14.8199C18.4693 14.663 18.0929 14.7849 17.9359 15.0923C16.8103 17.2962 14.5501 18.75 12 18.75C9.67571 18.75 7.57814 17.5397 6.37644 15.6435L7.2676 16.28C7.54851 16.4806 7.93882 16.4155 8.13945 16.1346C8.34004 15.8537 8.27498 15.4634 7.99411 15.2628L5.29175 13.3328C4.90053 13.0533 4.34984 13.304 4.30609 13.7846L4.00262 17.1137C3.97128 17.4574 4.22456 17.7615 4.56828 17.7928C4.91247 17.8241 5.21613 17.5706 5.24744 17.2271L5.33025 16.3187C6.7352 18.5252 9.17408 20 12 20C15.04 20 17.7191 18.2649 19.0491 15.6608C19.2061 15.3534 19.0842 14.9769 18.7767 14.8199Z" fill="black" style="fill:black;fill-opacity:1;"/>
</svg>
