<svg width="24" height="24" viewBox="0 0 24 24" fill="none" xmlns="http://www.w3.org/2000/svg">
<g clip-path="url(#clip0_121_6645)">
<path d="M23.0557 9.00247C23.0598 9.06964 23.0539 9.13706 23.0379 9.20245L21.5576 15.1239C21.5213 15.2689 21.4377 15.3977 21.3202 15.49C21.2026 15.5823 21.0576 15.6328 20.9082 15.6336L12.0259 15.6785H3.14019C2.99002 15.6785 2.84418 15.6282 2.72587 15.5358C2.60756 15.4433 2.52358 15.3139 2.4873 15.1682L1.00692 9.22425C0.990502 9.15711 0.984541 9.08784 0.989249 9.01888C0.416568 8.83846 0 8.30256 0 7.67103C0 6.89181 0.633869 6.25794 1.41308 6.25794C2.1923 6.25794 2.82617 6.89181 2.82617 7.67103C2.82617 8.10984 2.62511 8.50246 2.31028 8.76184L4.16371 10.6293C4.63213 11.1013 5.28215 11.3719 5.94715 11.3719C6.73346 11.3719 7.48315 10.9985 7.95526 10.3728L11.0012 6.3369C10.8698 6.20595 10.7655 6.05033 10.6944 5.87896C10.6233 5.70759 10.5868 5.52385 10.5869 5.33832C10.5869 4.5591 11.2208 3.92523 12 3.92523C12.7792 3.92523 13.4131 4.5591 13.4131 5.33832C13.4131 5.71622 13.2631 6.05921 13.0206 6.31303C13.0214 6.31411 13.0224 6.315 13.0232 6.31617L16.0471 10.3632C16.519 10.9949 17.2714 11.372 18.0599 11.372C18.731 11.372 19.3621 11.1106 19.8366 10.636L21.7017 8.7709C21.3803 8.51161 21.1738 8.11523 21.1738 7.67103C21.1738 6.89181 21.8077 6.25794 22.5869 6.25794C23.3661 6.25794 24 6.89181 24 7.67103C24 8.2857 23.6048 8.80849 23.0557 9.00247ZM21.4131 17.7869C21.4131 17.6084 21.3422 17.4373 21.216 17.3111C21.0898 17.1849 20.9187 17.114 20.7402 17.114H3.33461C3.15615 17.114 2.98499 17.1849 2.8588 17.3111C2.73261 17.4373 2.66171 17.6084 2.66171 17.7869V19.4019C2.66171 19.5803 2.73261 19.7515 2.8588 19.8777C2.98499 20.0039 3.15615 20.0748 3.33461 20.0748H20.7402C20.9187 20.0748 21.0898 20.0039 21.216 19.8777C21.3422 19.7515 21.4131 19.5803 21.4131 19.4019V17.7869Z" fill="#101010" style="fill:#101010;fill:color(display-p3 0.0627 0.0627 0.0627);fill-opacity:1;"/>
</g>
<defs>
<clipPath id="clip0_121_6645">
<rect width="24" height="24" fill="white" style="fill:white;fill-opacity:1;"/>
</clipPath>
</defs>
</svg>
