<svg width="24" height="24" viewBox="0 0 24 24" fill="none" xmlns="http://www.w3.org/2000/svg">
<path d="M19.5721 5.5658C18.6403 4.5561 17.3617 4 15.9717 4C14.9327 4 13.9811 4.32821 13.1434 4.97542C12.7207 5.30208 12.3377 5.70181 12 6.16827C11.6624 5.70191 11.2793 5.30208 10.8565 4.97542C10.0189 4.32821 9.06734 4 8.02829 4C6.63825 4 5.35958 4.5561 4.4278 5.5658C3.50716 6.5637 3 7.92701 3 9.40472C3 10.9256 3.56732 12.3179 4.78527 13.7863C5.87483 15.0998 7.4408 16.4332 9.25423 17.9772C9.87347 18.5044 10.5754 19.1021 11.3042 19.7387C11.4967 19.9073 11.744 20.0001 12 20C12.2561 20 12.5033 19.9072 12.6956 19.739C13.4244 19.1022 14.1267 18.5043 14.7462 17.9767C16.5593 16.433 18.1253 15.0998 19.2149 13.7861C20.4328 12.318 21 10.9257 21 9.40458C21 7.92701 20.4928 6.5637 19.5721 5.5658Z" fill="black" style="fill:black;fill-opacity:1;"/>
</svg>
