<svg width="100" height="100" viewBox="0 0 752 282" fill="none" xmlns="http://www.w3.org/2000/svg">
<path d="M606.314 91.1072C580.735 91.1072 560 70.7121 560 45.5536C560 20.395 580.735 0 606.314 0C631.892 0 652.627 20.395 652.627 45.5536C652.627 54.473 650.021 62.7937 645.516 69.8191L623.971 37.838C623.562 37.23 623.314 36.8626 623.065 36.6656C620.249 31.8331 615.126 28.4144 609.054 27.9631C599.322 27.2399 590.836 34.4137 590.101 43.9864C589.428 52.739 595.468 60.4665 603.947 62.2792C604.216 62.4312 604.629 62.551 605.273 62.7376L642.793 73.622C634.316 84.2667 621.127 91.1072 606.314 91.1072Z" fill="#58E9E9"/>
<path d="M664.262 144.408C671.937 139.93 674.908 130.631 671.554 122.76C671.526 122.456 671.389 122.054 671.176 121.429L658.72 84.9556C683.158 86.2095 702.581 106.097 702.581 130.446C702.581 155.605 681.846 176 656.267 176C630.689 176 609.954 155.605 609.954 130.446C609.954 106.04 629.469 86.1158 653.988 84.9471L639.714 120.645C639.442 121.323 639.278 121.734 639.257 122.048C636.848 127.088 636.939 133.177 640.046 138.328C645.026 146.584 655.868 149.306 664.262 144.408Z" fill="#58E9E9"/>
<path d="M659.277 45.6329C659.277 54.4912 661.848 62.7591 666.295 69.754L689.529 38.7935C689.928 38.2628 690.184 37.9218 690.421 37.7252C695.053 30.5082 704.501 27.5688 712.633 31.1837C721.527 35.1374 725.478 45.4342 721.458 54.1822C718.951 59.6402 713.932 63.2057 708.353 64.1555C708.079 64.3188 707.643 64.4219 706.922 64.5926L669.004 73.5669C677.478 84.2884 690.715 91.1864 705.59 91.1864C731.169 91.1864 751.904 70.7914 751.904 45.6329C751.904 20.4743 731.169 0.0792771 705.59 0.0792771C680.012 0.0792771 659.277 20.4743 659.277 45.6329Z" fill="#58E9E9"/>
<path d="M13.0017 121.12H110.69V150.11H51.8309V170.842H102.432V198.603H51.8309V242H13.0017V121.12ZM131.948 242V121.12H170.777V242H131.948ZM284.923 242L234.147 183.317V242H198.48V121.12H232.39L283.166 180.681V121.12H318.833V242H284.923ZM397.196 121.12C439.48 121.12 460.623 141.266 460.623 181.56C460.623 221.853 439.48 242 397.196 242H344.838V121.12H397.196ZM383.667 213.01H396.493C412.774 213.01 420.915 204.283 420.915 186.831V176.289C420.915 158.836 412.774 150.11 396.493 150.11H383.667V213.01ZM532.54 213.01H589.993V242H472.802V229.525L528.85 150.11H477.019V121.12H588.587V133.594L532.54 213.01Z" fill="#2F4571"/>
</svg>
