<svg width="24" height="24" viewBox="0 0 24 24" fill="none" xmlns="http://www.w3.org/2000/svg">
  <path d="M14.9593 12.8194L13.2843 14.4926C12.605 15.1712 11.4098 15.1859 10.7159 14.4926L9.04079 12.8194L3.02454 18.8283C3.24848 18.9314 3.4954 18.993 3.7579 18.993H20.2423C20.5048 18.993 20.7516 18.9315 20.9755 18.8284L14.9593 12.8194Z" fill="white"/>
  <path d="M20.2422 4.99292H3.75781C3.49531 4.99292 3.2484 5.05444 3.02453 5.15754L9.45332 11.579C9.45375 11.5794 9.45426 11.5795 9.45469 11.5799C9.45495 11.5802 9.45513 11.5805 9.4552 11.5809L11.5455 13.6689C11.7676 13.8899 12.2325 13.8899 12.4545 13.6689L14.5445 11.5813C14.5445 11.5813 14.545 11.5803 14.5454 11.5799C14.5454 11.5799 14.5463 11.5794 14.5468 11.579L20.9754 5.1575C20.7515 5.05436 20.5047 4.99292 20.2422 4.99292ZM2.18695 5.97338C2.07109 6.20664 2 6.46556 2 6.74292V17.2429C2 17.5202 2.07102 17.7792 2.18691 18.0124L8.21359 11.9931L2.18695 5.97338ZM21.813 5.97331L15.7864 11.9931L21.813 18.0125C21.9289 17.7792 22 17.5203 22 17.2429V6.74292C22 6.46548 21.9289 6.20656 21.813 5.97331Z" fill="white"/>
</svg>
