<svg width="25" height="19" viewBox="0 0 25 19" fill="none" xmlns="http://www.w3.org/2000/svg">
<path d="M0.5 1.92105C0.5 1.13623 1.14471 0.5 1.94 0.5H23.06C23.8553 0.5 24.5 1.13623 24.5 1.92105C24.5 2.70588 23.8553 3.34211 23.06 3.34211H1.94C1.14471 3.34211 0.5 2.70588 0.5 1.92105Z" fill="#101010" style="fill:#101010;fill:color(display-p3 0.0627 0.0627 0.0627);fill-opacity:1;"/>
<path d="M0.5 9.5C0.5 8.71517 1.14471 8.07895 1.94 8.07895H23.06C23.8553 8.07895 24.5 8.71517 24.5 9.5C24.5 10.2848 23.8553 10.9211 23.06 10.9211H1.94C1.14471 10.9211 0.5 10.2848 0.5 9.5Z" fill="#101010" style="fill:#101010;fill:color(display-p3 0.0627 0.0627 0.0627);fill-opacity:1;"/>
<path d="M0.5 17.0789C0.5 16.2941 1.14471 15.6579 1.94 15.6579H23.06C23.8553 15.6579 24.5 16.2941 24.5 17.0789C24.5 17.8638 23.8553 18.5 23.06 18.5H1.94C1.14471 18.5 0.5 17.8638 0.5 17.0789Z" fill="#101010" style="fill:#101010;fill:color(display-p3 0.0627 0.0627 0.0627);fill-opacity:1;"/>
</svg>
