<svg width="24" height="24" viewBox="0 0 24 24" fill="none" xmlns="http://www.w3.org/2000/svg">
  <path d="M18.7161 14.5022C17.7365 14.5022 16.7747 14.349 15.8633 14.0478C15.4166 13.8954 14.8676 14.0352 14.595 14.3151L12.796 15.6732C10.7096 14.5595 9.42444 13.2748 8.32595 11.204L9.64407 9.45188C9.98653 9.10988 10.1094 8.61029 9.96219 8.14154C9.65969 7.22529 9.50603 6.26392 9.50603 5.28392C9.50607 4.57596 8.93011 4 8.2222 4H5.28387C4.57596 4 4 4.57596 4 5.28387C4 13.3985 10.6016 20 18.7161 20C19.424 20 20 19.424 20 18.7161V15.786C20 15.0781 19.424 14.5022 18.7161 14.5022Z" fill="white"/>
</svg>
