<svg width="24" height="24" viewBox="0 0 24 24" fill="none" xmlns="http://www.w3.org/2000/svg">
<path d="M19.6526 11.2509C19.8066 11.0954 19.9154 10.8978 19.9668 10.6807C20.0181 10.4636 20.0098 10.2358 19.9429 10.0233C19.8774 9.81029 19.7558 9.62082 19.5919 9.47662C19.428 9.33242 19.2286 9.23934 19.0163 9.20805L15.1424 8.6205C15.0611 8.60817 14.984 8.5754 14.9175 8.52501C14.8511 8.47461 14.7974 8.40811 14.7611 8.33124L13.0292 4.66748C12.9351 4.46656 12.7886 4.29738 12.6066 4.17933C12.4246 4.06128 12.2144 3.99913 12.0002 4.00001C11.7859 3.9992 11.5758 4.06137 11.3939 4.17942C11.212 4.29747 11.0656 4.46661 10.9714 4.66748L9.23918 8.33157C9.1655 8.48774 9.02261 8.59575 8.85762 8.62083L4.98366 9.20838C4.77144 9.23968 4.57196 9.33276 4.40809 9.47696C4.24421 9.62115 4.12259 9.81063 4.05714 10.0237C3.99018 10.2361 3.98189 10.4639 4.03322 10.681C4.08456 10.8981 4.19344 11.0958 4.3474 11.2513L7.15035 14.1031C7.26985 14.2248 7.32463 14.4 7.29644 14.5713L6.63519 18.5982C6.60527 18.7693 6.6122 18.9452 6.65548 19.1131C6.69876 19.2811 6.77729 19.4369 6.8854 19.5693C7.22692 19.993 7.82313 20.1221 8.29985 19.8606L11.7644 17.9591C11.8374 17.9202 11.9182 17.8999 12.0002 17.8999C12.0821 17.8999 12.1629 17.9202 12.236 17.9591L15.7008 19.8606C15.8651 19.952 16.0484 19.9999 16.2345 20C16.5732 20 16.8942 19.8428 17.1149 19.5693C17.223 19.4369 17.3016 19.2811 17.3449 19.1132C17.3882 18.9452 17.3951 18.7693 17.3651 18.5982L16.7036 14.5713C16.6897 14.4867 16.6958 14.3999 16.7212 14.3183C16.7467 14.2368 16.7908 14.1629 16.8497 14.1031L19.6526 11.2509Z" fill="black" style="fill:black;fill-opacity:1;"/>
</svg>
